# xmcd
#
# Track frame offsets:
#	182
#	10935
#	18827
#	27887
#	38110
#	46577
#	54602
#	65455
#	73612
#	87940
#	98512
#	109000
#
# Disc length: 1564 seconds
#
# Revision: 4
# Processed by: cddbd v1.5.2PL0 Copyright (c) Steve Scherf et al.
# Submitted via: audiograbber 1.83.01
#
DISCID=89061a0c
DTITLE=Roger Miller - Best Of Roger Miller, His Greatest Songs
DYEAR=1991
DGENRE=Country
TTITLE0=King Of The Road
TTITLE1=Dang Me
TTITLE2=Chug-A-Lug
TTITLE3=Engine, Engine #9
TTITLE4=England Swings
TTITLE5=Do-Wacka-Do
TTITLE6=Husbands And Wives
TTITLE7=You Don't Want My Love
TTITLE8=Me And Bobby McGee
TTITLE9=When Two Worlds Collide
TTITLE10=Kansas City Star
TTITLE11=You Can't Roller Skate In A Buffalo Herd
EXTD=
EXTT0=
EXTT1=
EXTT2=
EXTT3=
EXTT4=
EXTT5=
EXTT6=
EXTT7=
EXTT8=
EXTT9=
EXTT10=
EXTT11=
PLAYORDER=
